<svg width="69" height="69" viewBox="0 0 69 69" fill="none" xmlns="http://www.w3.org/2000/svg">
<path d="M2.39389 24.0681L34.5 0.741642L66.6061 24.0681L54.3427 61.8111H14.6573L2.39389 24.0681Z" fill="#1565D8" stroke="white" stroke-width="1.2"/>
<rect x="21" y="21" width="27" height="27" stroke="white"/>
<path fill-rule="evenodd" clip-rule="evenodd" d="M26.0225 38.3975C27.0774 37.3426 28.5082 36.75 30 36.75H39C40.4918 36.75 41.9226 37.3426 42.9775 38.3975C44.0324 39.4524 44.625 40.8832 44.625 42.375V44.625C44.625 45.2463 44.1213 45.75 43.5 45.75C42.8787 45.75 42.375 45.2463 42.375 44.625V42.375C42.375 41.4799 42.0194 40.6215 41.3865 39.9885C40.7535 39.3556 39.8951 39 39 39H30C29.1049 39 28.2464 39.3556 27.6135 39.9885C26.9806 40.6215 26.625 41.4799 26.625 42.375V44.625C26.625 45.2463 26.1213 45.75 25.5 45.75C24.8787 45.75 24.375 45.2463 24.375 44.625V42.375C24.375 40.8832 24.9676 39.4524 26.0225 38.3975Z" fill="white"/>
<path fill-rule="evenodd" clip-rule="evenodd" d="M34.5 25.5C32.636 25.5 31.125 27.011 31.125 28.875C31.125 30.739 32.636 32.25 34.5 32.25C36.364 32.25 37.875 30.739 37.875 28.875C37.875 27.011 36.364 25.5 34.5 25.5ZM28.875 28.875C28.875 25.7684 31.3934 23.25 34.5 23.25C37.6066 23.25 40.125 25.7684 40.125 28.875C40.125 31.9816 37.6066 34.5 34.5 34.5C31.3934 34.5 28.875 31.9816 28.875 28.875Z" fill="white"/>
</svg>
