<svg width="181" height="38" viewBox="0 0 181 38" fill="none" xmlns="http://www.w3.org/2000/svg">
<path fill-rule="evenodd" clip-rule="evenodd" d="M6.43681 5.69329C6.17789 8.47364 7.41701 10.6682 7.17527 13.2635C7.0508 14.6002 6.54223 15.5349 5.80221 16.152C5.60896 16.3132 5.42871 16.4149 5.21954 16.5605C5.00152 16.7122 4.82991 16.8341 4.61064 16.9857L1.7897 19.2853C1.61112 19.4841 1.47771 19.6605 1.31807 19.8764C0.848517 20.5111 0.1597 21.8954 0.0611487 22.9537C-0.0523883 24.1727 -0.0276229 24.6238 0.305808 25.7593C0.515919 26.4748 0.795026 27.0408 1.15093 27.6238C1.84236 28.7567 2.7698 29.7058 4.14224 30.2706C4.7298 30.5124 5.75965 30.8173 6.51049 30.7993C6.73819 30.7939 6.94299 30.8426 7.17724 30.8304C8.95658 30.7376 9.51657 30.4851 11.1601 30.2259C12.8083 29.966 14.435 29.6467 15.8537 30.9982C16.8278 31.9264 18.0256 33.1934 18.7329 34.2998C19.6946 35.8042 21.4641 36.967 23.324 37.1402C24.6952 37.2679 25.196 37.2774 26.5486 36.8771C26.8923 36.7753 27.2543 36.6183 27.5615 36.4563L28.4828 35.8767C28.7583 35.6754 29.0272 35.4108 29.2515 35.1606C29.5233 34.8572 29.6748 34.6674 29.902 34.302C31.3574 31.9622 30.9091 28.524 29.2259 26.4926C28.6629 25.8131 28.2193 25.3294 27.4718 24.8627C25.5488 23.6625 23.509 23.5574 21.4207 24.3877C21.2155 24.4692 20.9593 24.5546 20.7668 24.6134C20.534 24.6846 20.3273 24.7407 20.0662 24.7826C17.9751 25.1182 15.6876 24.5072 14.2491 22.9049C13.7193 22.3147 13.1622 21.2155 12.8638 20.4466C12.2418 18.8442 12.2002 16.9235 13.2495 15.4776C14.2392 14.1139 14.1166 14.0637 15.6078 13.1025L16.5841 12.3955C16.6803 12.3211 16.6975 12.3253 16.7921 12.2599C17.2077 11.9726 17.8706 11.3513 18.2328 10.9532C20.0781 8.92498 20.0239 6.12392 18.7973 3.83486C18.7128 3.6772 18.649 3.58114 18.5585 3.4317C18.4548 3.2603 18.3729 3.1757 18.2776 3.02345C18.1158 2.76495 17.8972 2.50946 17.6648 2.28967C17.1636 1.81564 16.8116 1.4459 16.1578 1.05596C14.24 -0.0878428 11.9479 -0.475173 9.85093 0.77207C8.73929 1.43331 7.73702 2.30716 7.12958 3.48228C6.80552 4.10918 6.52121 4.78759 6.43681 5.69329Z" fill="#ECEEFA"/>
<path fill-rule="evenodd" clip-rule="evenodd" d="M38.9299 10.498C40.4225 10.498 41.8038 9.85641 42.6388 8.64486C42.7976 8.41446 42.9237 8.22963 43.045 7.96718C43.3131 7.387 43.3683 6.92912 43.4487 6.19867C43.4978 5.75139 43.284 4.83706 43.1176 4.42433C42.5337 2.97603 40.9476 1.71973 39.3232 1.71973C38.4449 1.71973 37.905 1.7496 37.0925 2.14578C36.0095 2.67371 34.9941 3.92096 34.7551 5.17715C34.4929 6.55655 34.7776 7.82544 35.6689 8.88588C36.1144 9.4159 36.5355 9.76754 37.1752 10.0878C37.6136 10.3072 38.293 10.498 38.9299 10.498Z" fill="#ECEEFA"/>
<path d="M36.4844 33.4093H41.7732V13.4089H36.4844V33.4093ZM54.2815 33.7066C60.0791 33.7066 64.2832 29.4316 64.2832 23.4091C64.2832 17.3867 60.0791 13.1115 54.2815 13.1115C48.4841 13.1115 44.2461 17.3867 44.2461 23.4091C44.2461 29.4316 48.4841 33.7066 54.2815 33.7066ZM54.2815 28.9482C51.637 28.9482 49.603 26.8664 49.603 23.4091C49.603 19.9519 51.637 17.8701 54.2815 17.8701C56.9259 17.8701 58.9263 19.9519 58.9263 23.4091C58.9263 26.8664 56.9259 28.9482 54.2815 28.9482ZM77.5034 13.1115C75.2318 13.1115 73.3672 13.8921 72.0109 15.5279V5.8252H66.7222V33.4093H71.7737V31.1045C73.0961 32.8515 75.0622 33.7066 77.5034 33.7066C82.6228 33.7066 86.5896 29.6917 86.5896 23.4091C86.5896 17.1263 82.6228 13.1115 77.5034 13.1115ZM76.5879 28.9482C73.9435 28.9482 71.9433 26.8664 71.9433 23.4091C71.9433 19.9519 73.9435 17.8701 76.5879 17.8701C79.2324 17.8701 81.2327 19.9519 81.2327 23.4091C81.2327 26.8664 79.2324 28.9482 76.5879 28.9482ZM97.7077 33.7066C103.505 33.7066 107.709 29.4316 107.709 23.4091C107.709 17.3867 103.505 13.1115 97.7077 13.1115C91.9103 13.1115 87.6723 17.3867 87.6723 23.4091C87.6723 29.4316 91.9103 33.7066 97.7077 33.7066ZM97.7077 28.9482C95.0632 28.9482 93.0291 26.8664 93.0291 23.4091C93.0291 19.9519 95.0632 17.8701 97.7077 17.8701C100.352 17.8701 102.353 19.9519 102.353 23.4091C102.353 26.8664 100.352 28.9482 97.7077 28.9482ZM120.489 28.3533C119.913 28.8367 119.133 29.0968 118.353 29.0968C116.929 29.0968 116.081 28.1676 116.081 26.4575V18.3162H120.625V13.855H116.081V8.98508H110.793V13.855H107.978V18.3162H110.793V26.5319C110.793 31.2903 113.301 33.7066 117.607 33.7066C119.234 33.7066 120.828 33.2976 121.913 32.4426L120.489 28.3533ZM141.1 23.4835C141.1 17.0522 136.964 13.1115 131.607 13.1115C126.047 13.1115 121.877 17.424 121.877 23.4091C121.877 29.3572 125.979 33.7066 132.285 33.7066C135.574 33.7066 138.116 32.5914 139.812 30.4724L136.998 27.1265C135.743 28.4277 134.353 29.0599 132.421 29.0599C129.641 29.0599 127.708 27.5355 127.2 25.0447H140.998C141.032 24.5614 141.1 23.9295 141.1 23.4835ZM131.641 17.4984C134.014 17.4984 135.743 19.134 136.116 21.6618H127.132C127.505 19.0968 129.234 17.4984 131.641 17.4984ZM152.354 33.7066C156.185 33.7066 159.202 31.848 160.524 28.6509L156.422 26.1971C155.439 28.1304 153.981 28.9482 152.32 28.9482C149.641 28.9482 147.54 26.9036 147.54 23.4091C147.54 19.9147 149.641 17.8701 152.32 17.8701C153.981 17.8701 155.439 18.7251 156.422 20.6209L160.524 18.2046C159.202 14.9332 156.185 13.1115 152.354 13.1115C146.421 13.1115 142.183 17.3867 142.183 23.4091C142.183 29.4316 146.421 33.7066 152.354 33.7066ZM173.44 13.1115C171.1 13.1115 169.066 13.9293 167.642 15.4906V5.8252H162.353V33.4093H167.642V23.5206C167.642 19.8403 169.473 18.1302 172.016 18.1302C174.355 18.1302 175.711 19.6171 175.711 22.8516V33.4093H181V21.9593C181 15.8623 177.745 13.1115 173.44 13.1115Z" fill="white"/>
</svg>
