<svg width="69" height="69" viewBox="0 0 69 69" fill="none" xmlns="http://www.w3.org/2000/svg">
<path d="M34.5 0L67.3114 23.8389L54.7786 62.4111H14.2214L1.68855 23.8389L34.5 0Z" fill="#1565D8"/>
<path fill-rule="evenodd" clip-rule="evenodd" d="M25.6542 30.0768C25.0435 30.0768 24.5485 30.5718 24.5485 31.1825V42.2402C24.5485 42.8509 25.0435 43.346 25.6542 43.346H43.3465C43.9572 43.346 44.4523 42.8509 44.4523 42.2402V31.1825C44.4523 30.5718 43.9572 30.0768 43.3465 30.0768H25.6542ZM22.3369 31.1825C22.3369 29.3504 23.8221 27.8652 25.6542 27.8652H43.3465C45.1786 27.8652 46.6638 29.3504 46.6638 31.1825V42.2402C46.6638 44.0723 45.1786 45.5575 43.3465 45.5575H25.6542C23.8221 45.5575 22.3369 44.0723 22.3369 42.2402V31.1825Z" fill="white"/>
<path fill-rule="evenodd" clip-rule="evenodd" d="M29.9431 24.4138C30.5653 23.7916 31.409 23.4421 32.2888 23.4421H36.7119C37.5917 23.4421 38.4355 23.7916 39.0576 24.4138C39.6797 25.0359 40.0292 25.8796 40.0292 26.7594V44.4518C40.0292 45.0625 39.5342 45.5575 38.9235 45.5575C38.3128 45.5575 37.8177 45.0625 37.8177 44.4518V26.7594C37.8177 26.4662 37.7012 26.1849 37.4938 25.9775C37.2864 25.7702 37.0052 25.6537 36.7119 25.6537H32.2888C31.9956 25.6537 31.7143 25.7702 31.5069 25.9775C31.2996 26.1849 31.1831 26.4662 31.1831 26.7594V44.4518C31.1831 45.0625 30.688 45.5575 30.0773 45.5575C29.4666 45.5575 28.9715 45.0625 28.9715 44.4518V26.7594C28.9715 25.8796 29.321 25.0359 29.9431 24.4138Z" fill="white"/>
</svg>
